<?xml version="1.0" encoding="UTF-8"?>
<svg id="Layer_1" data-name="Layer 1" xmlns="http://www.w3.org/2000/svg" version="1.1" viewBox="0 0 800 800">
  <defs>
    <style>
      .cls-1 {
        fill: #231f20;
        fill-rule: evenodd;
        stroke-width: 0px;
      }
    </style>
  </defs>
  <path class="cls-1" d="M733.3,400c0,184.1-149.2,333.3-333.3,333.3S66.7,584.1,66.7,400,215.9,66.7,400,66.7s333.3,149.2,333.3,333.3ZM400,258.3c-20.7,0-37.5,16.8-37.5,37.5s-11.2,25-25,25-25-11.2-25-25c0-48.3,39.2-87.5,87.5-87.5s87.5,39.2,87.5,87.5-9.4,45.2-24.7,61c-3.1,3.2-6,6.1-8.8,8.9-7.2,7.2-13.5,13.5-19,20.6-7.3,9.4-9.9,16.3-9.9,22v25c0,13.8-11.2,25-25,25s-25-11.2-25-25v-25c0-21.8,10.2-39.5,20.5-52.8,7.6-9.8,17.2-19.4,25-27.1,2.3-2.3,4.5-4.5,6.4-6.5,6.6-6.8,10.6-16,10.6-26.1,0-20.7-16.8-37.5-37.5-37.5ZM400,566.7c18.4,0,33.3-14.9,33.3-33.3s-14.9-33.3-33.3-33.3-33.3,14.9-33.3,33.3,14.9,33.3,33.3,33.3Z"/>
</svg>